<?xml version="1.0" encoding="utf-8"?>
<!-- Generator: Adobe Illustrator 24.1.3, SVG Export Plug-In . SVG Version: 6.00 Build 0)  -->
<svg version="1.1" id="Layer_1" xmlns="http://www.w3.org/2000/svg" xmlns:xlink="http://www.w3.org/1999/xlink" x="0px" y="0px"
	 viewBox="0 0 149.2 172.2" style="enable-background:new 0 0 149.2 172.2;" xml:space="preserve">
<style type="text/css">
	.st0{fill:#585858;}
	.st1{fill:none;stroke:#FFFFFF;stroke-width:4;stroke-linecap:round;stroke-linejoin:round;stroke-miterlimit:10;}
</style>
<polygon class="st0" points="149.2,129.2 74.6,172.2 0,129.2 0,43.1 74.6,0 149.2,43.1 "/>
<path class="st0" d="M25.1,65.4c5.7-1.3,11.4-2.6,17.2-3.9"/>
<g>
	<path class="st1" d="M69.5,14.6c1.9,5.3,10.1,105-10.5,123.9"/>
	<path class="st1" d="M73.8,22.2"/>
	<path class="st1" d="M66.3,14.6c1.9,4.6,10.1,91.3-10.5,107.7"/>
	<path class="st1" d="M73.8,17.6c-1.9,7.1-8.7,117.8,9.2,143.2"/>
	<path class="st1" d="M76.5,14.6C74.6,20,66.3,119.7,87,138.5"/>
	<path class="st1" d="M67.8,42.6C46.7,54.5,42.2,88.2,42.2,88.2"/>
	<path class="st1" d="M67.8,68.5C55.1,77.4,55,96.3,55,96.3"/>
	<path class="st1" d="M52.9,62.8"/>
	<path class="st1" d="M61.8,56.6"/>
	<path class="st1" d="M91.3,42.1"/>
	<path class="st1" d="M74,27.5c23.2,10,29,44.4,29,44.4"/>
</g>
<path class="st1" d="M74.6,55.2c15.1,6.3,16.4,43,16.4,43"/>
</svg>
