<?xml version="1.0" encoding="UTF-8" standalone="no"?>
<svg
   xmlns:dc="http://purl.org/dc/elements/1.1/"
   xmlns:cc="http://creativecommons.org/ns#"
   xmlns:rdf="http://www.w3.org/1999/02/22-rdf-syntax-ns#"
   xmlns:svg="http://www.w3.org/2000/svg"
   xmlns="http://www.w3.org/2000/svg"
   xmlns:sodipodi="http://sodipodi.sourceforge.net/DTD/sodipodi-0.dtd"
   xmlns:inkscape="http://www.inkscape.org/namespaces/inkscape"
   version="1.1"
   id="Layer_1"
   x="0px"
   y="0px"
   width="149.167px"
   height="172.243px"
   viewBox="0 0 149.167 172.243"
   enable-background="new 0 0 149.167 172.243"
   xml:space="preserve"
   sodipodi:docname="logo.svg"
   inkscape:version="1.0.1 (3bc2e813f5, 2020-09-07)"><metadata
   id="metadata11"><rdf:RDF><cc:Work
       rdf:about=""><dc:format>image/svg+xml</dc:format><dc:type
         rdf:resource="http://purl.org/dc/dcmitype/StillImage" /></cc:Work></rdf:RDF></metadata><defs
   id="defs9" /><sodipodi:namedview
   pagecolor="#ffffff"
   bordercolor="#666666"
   borderopacity="1"
   objecttolerance="10"
   gridtolerance="10"
   guidetolerance="10"
   inkscape:pageopacity="0"
   inkscape:pageshadow="2"
   inkscape:window-width="2560"
   inkscape:window-height="1377"
   id="namedview7"
   showgrid="false"
   inkscape:zoom="2.1060118"
   inkscape:cx="60.61412"
   inkscape:cy="114.24879"
   inkscape:window-x="-8"
   inkscape:window-y="-8"
   inkscape:window-maximized="1"
   inkscape:current-layer="Layer_1"
   inkscape:document-rotation="0" />
<polygon
   fill="#585858"
   points="149.167,129.183 74.583,172.243 0,129.183 0,43.061 74.583,0 149.167,43.061 "
   id="polygon2" />

<g
   id="g850"
   style="fill:#ffffff;fill-opacity:1"
   transform="matrix(0.46733004,0,0,0.46733004,-56.567025,43.31916)"><path
     style="fill:#ffffff;fill-opacity:1"
     d="m 275.71355,158.53089 c -39.64871,-10.38854 -67.7839,-60.71351 -69.87532,-124.984899 -0.60642,-18.635847 -0.43515,-18.878749 8.23637,-11.681038 12.67857,10.523737 25.29256,15.523348 49.46886,19.607213 35.66888,6.025191 46.67909,12.115074 61.64458,34.096354 9.19147,13.500404 14.56389,34.07028 12.58701,48.193 -1.04981,7.49982 -2.3046,6.69051 15.09618,9.73668 7.30613,1.27901 8.61281,2.33307 8.61281,6.94773 0,8.52062 -3.23878,9.49646 -18.59207,5.60178 -9.84852,-2.49828 -9.84852,-2.49828 -14.87822,2.41833 -11.39777,11.14148 -32.61073,15.22378 -52.3002,10.06485 z m 49.80087,-25.57696 c 1.43943,-4.36151 1.51808,-4.28846 -9.03038,-8.38817 -18.28246,-7.10557 -39.19747,-18.94238 -55.08848,-31.177226 -8.10406,-6.23949 -8.91152,-6.639484 -8.91152,-4.414499 0,6.202573 40.99665,36.204665 60.38918,44.193905 10.31225,4.24839 11.17329,4.23381 12.6412,-0.21401 z"
     id="path864" /><path
     style="fill:#ffffff;fill-opacity:1"
     d="M 277.48404,159.02543 C 255.68166,154.1359 237.65637,138.37972 225.25075,113.36752 208.76032,80.119518 197.47868,6.8539806 210.74902,19.189934 c 13.46382,12.515819 27.71929,18.40742 55.23673,22.828628 24.72262,3.972168 36.19828,8.599705 46.67471,18.821474 17.84183,17.408136 27.54843,41.833074 25.00179,62.912544 -0.90971,7.52999 -2.03794,6.78369 14.82179,9.80428 7.94295,1.42306 9,2.23218 9,6.88907 0,8.67846 -3.4117,9.51281 -20.54656,5.02477 -7.77689,-2.03696 -7.77689,-2.03696 -12.86516,2.84436 -11.23964,10.78249 -31.31483,15.03274 -50.58828,10.71037 z m 48.67021,-27.30266 c 0.77011,-3.06694 0.40207,-3.33191 -10.67021,-7.6821 -18.45352,-7.2502 -34.68315,-16.45057 -53.11496,-30.110216 -9.17385,-6.798656 -9.88504,-7.158791 -9.88504,-5.005591 0,4.4589 30.64239,28.931657 48.36062,38.623557 18.07983,9.88969 23.64405,10.8074 25.30959,4.17435 z"
     id="path862" /><path
     style="fill:#ffffff;fill-opacity:1"
     d="m 276.59601,158.57084 c -23.25547,-6.30999 -38.53607,-19.7024 -51.01572,-44.71181 -17.62142,-35.313587 -28.02084,-106.7159266 -13.6077,-93.430358 12.55268,11.570657 24.64711,16.453258 53.51145,21.602929 26.28991,4.690367 34.05717,7.527119 44,16.069637 19.52797,16.777717 30.9541,43.945952 27.97057,66.506412 -0.87644,6.62736 -2.08777,5.63718 9.68897,7.9201 14.14502,2.74201 15.61185,3.81844 13.9923,10.26824 -1.65865,6.6055 -6.29648,7.02567 -22.37205,2.02681 -5.22021,-1.62327 -5.22021,-1.62327 -10.55801,3.425 -11.77385,11.13521 -32.98223,15.37733 -51.60981,10.32304 z m 48.36235,-23.97519 c 2.54168,-4.91507 2.0038,-6.58984 -2.5551,-7.95572 -14.66602,-4.39404 -41.531,-18.95462 -58.74203,-31.837637 -19.12573,-14.316241 -13.01509,-4.49532 8.2285,13.224727 14.50199,12.09663 39.28502,26.32383 51.31863,29.4605 0.12338,0.0322 0.91088,-1.26918 1.75,-2.89187 z"
     id="path860" /><path
     style="fill:#ffffff;fill-opacity:1"
     d="m 278.98404,159.07834 c -41.32075,-9.01244 -69.89913,-57.86833 -73.13799,-125.032349 -0.84031,-17.425323 0.0452,-19.117364 6.8182,-13.027882 2.84053,2.553875 8.12451,6.391421 11.74219,8.527879 10.57234,6.243606 17.63266,8.234042 51.46233,14.508195 37.96343,7.040811 62.66434,37.24417 61.46097,75.152197 -0.22245,7.00763 0.024,11.45733 0.6476,11.69334 0.55368,0.20953 5.41981,1.17341 10.8136,2.14195 12.43067,2.23212 15.1334,4.99962 11.5434,11.82006 -2.26027,4.29415 -4.42589,4.35081 -19.09876,0.49969 -7.74847,-2.0337 -7.74847,-2.0337 -13.71542,3.49065 -10.95114,10.13882 -30.27254,14.20972 -48.53612,10.22627 z m 47.10241,-27.6016 c 0.53533,-3.43075 0.53533,-3.43075 -7.28354,-6.31119 -18.26789,-6.72981 -41.10047,-19.52039 -57.59218,-32.262553 -11.72607,-9.060035 -12.3379,-6.069068 -0.97669,4.774558 18.3509,17.514885 39.92352,31.671765 57.75,37.898045 5.83651,2.03853 7.25686,1.32 8.10241,-4.09886 z"
     id="path858" /><path
     style="fill:#ffffff;fill-opacity:1"
     d="m 279.44726,159.12362 c -40.72849,-8.55335 -68.79227,-55.23633 -73.49647,-122.258455 -1.35679,-19.330494 -0.0457,-21.8232 7.77843,-14.78864 10.83267,9.739496 23.54997,15.005462 45.78623,18.95911 32.91872,5.853007 40.61192,8.702163 52.0221,19.266236 17.02386,15.761485 25.34032,34.095413 25.40463,56.005409 0.0346,11.78866 0.30193,14.33794 1.54186,14.70344 0.825,0.24319 5.55,1.18053 10.5,2.08298 12.13117,2.21168 13.947,4.00298 11.41642,11.26221 -1.67299,4.79914 -6.98986,4.77324 -22.99114,-0.112 -4.57471,-1.39668 -4.57471,-1.39668 -7.84772,2.50185 -9.20312,10.96195 -31.10159,16.37071 -50.11434,12.37786 z m 46.86712,-27.36695 c 1.02664,-3.08952 0.92832,-3.35187 -1.61865,-4.31927 -24.72867,-9.39246 -46.29494,-21.21155 -64.03874,-35.095532 -8.94598,-6.999948 -11.56611,-5.812905 -4.10195,1.858373 17.28909,17.768819 42.57822,34.814679 61.35137,41.353219 5.72231,1.99304 6.6185,1.58834 8.40797,-3.79679 z"
     id="path856" /><path
     style="fill:#ffffff;fill-opacity:1"
     d="m 284.98404,159.98794 c -1.1,-0.2539 -4.475,-0.95245 -7.5,-1.55234 -37.90243,-7.51642 -65.1349,-52.73186 -71.09476,-118.042204 -2.05842,-22.556985 -0.72681,-25.539286 7.9345,-17.770285 10.94052,9.813392 25.02967,15.141936 52.66026,19.916212 46.36356,8.011136 71.89945,36.087334 70.27435,77.265217 -0.48347,12.25049 -1.4186,11.32839 14.05747,13.86151 8.39188,1.37358 10.83383,3.57277 9.69988,8.73561 -1.46372,6.66428 -6.34556,7.01711 -23.91779,1.72865 -4.54227,-1.36702 -4.54227,-1.36702 -7.10807,1.99692 -7.39232,9.69182 -31.24326,17.03733 -45.00584,13.86071 z m 41.17044,-27.19562 c 1.77786,-4.25502 2.06031,-4.00011 -9.67044,-8.72756 -19.60783,-7.90188 -38.60891,-18.64187 -54.16754,-30.617159 -7.06122,-5.434932 -10.83246,-7.191024 -10.83246,-5.044178 0,3.165656 27.48565,26.466647 40.71151,34.513227 22.76348,13.84925 31.26558,16.32176 33.95893,9.87567 z"
     id="path854" /><path
     style="fill:#ffffff;fill-opacity:1"
     d="M 280.98404,159.09186 C 239.39815,151.01012 212.47839,107.84194 206.435,39.545991 c -1.92892,-21.798666 -0.61887,-24.639005 7.81082,-16.934741 10.21615,9.336986 22.98366,14.635966 44.55612,18.492403 39.19637,7.007006 48.50174,11.455287 62.26536,29.764939 11.44737,15.228371 15.86068,27.990412 15.89241,45.956368 0.0277,15.68458 -1.14999,14.30305 14.35615,16.84109 8.47463,1.38712 10.62132,3.36423 9.53738,8.78395 -1.28353,6.41766 -6.97452,6.69739 -25.0655,1.23202 -2.93957,-0.88806 -3.39802,-0.70116 -5.70759,2.32685 -8.24414,10.80862 -30.40807,16.7148 -49.09611,13.08299 z m 43.90922,-23.79587 c 3.84773,-5.94874 3.30981,-7.00771 -5.13038,-10.09984 -18.57224,-6.8041 -39.9016,-18.62798 -57.4698,-31.858245 -18.86133,-14.204093 -8.82948,0.07816 11.97978,17.055515 12.37939,10.0998 29.43653,20.25334 41.65804,24.79764 7.54682,2.80611 7.21769,2.80226 8.96236,0.10493 z"
     id="path852" /></g></svg>
