<?xml version="1.0" encoding="UTF-8" standalone="no"?>
<svg
   xmlns:dc="http://purl.org/dc/elements/1.1/"
   xmlns:cc="http://creativecommons.org/ns#"
   xmlns:rdf="http://www.w3.org/1999/02/22-rdf-syntax-ns#"
   xmlns:svg="http://www.w3.org/2000/svg"
   xmlns="http://www.w3.org/2000/svg"
   xmlns:sodipodi="http://sodipodi.sourceforge.net/DTD/sodipodi-0.dtd"
   xmlns:inkscape="http://www.inkscape.org/namespaces/inkscape"
   version="1.1"
   id="Layer_1"
   x="0px"
   y="0px"
   width="149.167px"
   height="172.243px"
   viewBox="0 0 149.167 172.243"
   enable-background="new 0 0 149.167 172.243"
   xml:space="preserve"
   sodipodi:docname="logo.svg"
   inkscape:version="1.0.1 (3bc2e813f5, 2020-09-07)"><metadata
   id="metadata11"><rdf:RDF><cc:Work
       rdf:about=""><dc:format>image/svg+xml</dc:format><dc:type
         rdf:resource="http://purl.org/dc/dcmitype/StillImage" /></cc:Work></rdf:RDF></metadata><defs
   id="defs9" /><sodipodi:namedview
   pagecolor="#ffffff"
   bordercolor="#666666"
   borderopacity="1"
   objecttolerance="10"
   gridtolerance="10"
   guidetolerance="10"
   inkscape:pageopacity="0"
   inkscape:pageshadow="2"
   inkscape:window-width="2560"
   inkscape:window-height="1377"
   id="namedview7"
   showgrid="false"
   inkscape:zoom="2.9783504"
   inkscape:cx="131.62897"
   inkscape:cy="88.344889"
   inkscape:window-x="-8"
   inkscape:window-y="-8"
   inkscape:window-maximized="1"
   inkscape:current-layer="Layer_1" />
<polygon
   fill="#585858"
   points="149.167,129.183 74.583,172.243 0,129.183 0,43.061 74.583,0 149.167,43.061 "
   id="polygon2" />

<path
   fill="currentColor"
   d="m 107.23446,51.356131 c -0.73725,-1.64563 -2.84366,-1.711458 -3.72572,-0.157983 C 99.427561,58.294122 92.120941,62.71758 83.774301,62.71758 h -10.53205 c -13.95498,0 -25.27693,11.32196 -25.27693,25.276922 0,0.921555 0.10532,1.803617 0.19747,2.698838 8.39932,-6.016427 20.52434,-11.124478 37.71791,-11.124478 1.15853,0 2.10641,0.947887 2.10641,2.106411 0,1.15853 -0.94788,2.106408 -2.10641,2.106408 -33.09696,0 -47.13093,20.287369 -50.23788,27.909939 -0.86889,2.14589 0.15798,4.59459 2.30389,5.47666 2.15906,0.89522 4.60777,-0.14482 5.50299,-2.27756 0.19749,-0.47394 2.7515,-6.30606 9.46568,-11.92754 4.26548,5.77946 12.37516,11.29562 23.0257,10.16342 20.66915,-1.50081 35.216559,-20.03721 35.216559,-42.733784 0,-6.608861 -1.42183,-13.454696 -3.92318,-19.036685 z"
   id="path2"
   style="fill:#ffffff;fill-opacity:1;stroke-width:0.131651" /></svg>
