<?xml version="1.0" encoding="UTF-8"?>
<svg width="150px" height="173px" viewBox="0 0 150 173" xmlns="http://www.w3.org/2000/svg" xmlns:xlink="http://www.w3.org/1999/xlink" version="1.1">
 <!-- Generated by Pixelmator Pro 2.0 -->
 <path id="Path" d="M149.167 129.183 L74.583 172.243 0 129.183 0 43.061 74.583 0 149.167 43.061 Z" fill="#585858" fill-opacity="1" stroke="none"/>
 <path id="leaf-solid" d="M111.76 50.572 C110.963 48.793 108.687 48.722 107.734 50.401 103.323 58.07 95.426 62.85 86.406 62.85 L75.023 62.85 C59.942 62.85 47.706 75.086 47.706 90.168 47.706 91.164 47.82 92.117 47.919 93.085 56.997 86.583 70.101 81.062 88.682 81.062 89.934 81.062 90.959 82.087 90.959 83.339 90.959 84.591 89.934 85.615 88.682 85.615 52.913 85.615 37.746 107.54 34.388 115.778 33.449 118.097 34.559 120.744 36.878 121.697 39.212 122.665 41.858 121.541 42.826 119.236 43.039 118.724 45.799 112.421 53.055 106.345 57.665 112.591 66.43 118.553 77.94 117.329 100.278 115.707 116 95.674 116 71.145 116 64.003 114.463 56.604 111.76 50.572 Z" fill="#ffffff" fill-opacity="1" stroke="none"/>
</svg>
